<?xml version="1.0" standalone="no"?>
<!DOCTYPE svg PUBLIC "-//W3C//DTD SVG 20010904//EN"
 "http://www.w3.org/TR/2001/REC-SVG-20010904/DTD/svg10.dtd">
<svg version="1.0" xmlns="http://www.w3.org/2000/svg"
 width="800.000000pt" height="800.000000pt" viewBox="0 0 800.000000 800.000000"
 preserveAspectRatio="xMidYMid meet">
<metadata>
Created by potrace 1.14, written by Peter Selinger 2001-2017
</metadata>
<g transform="translate(0.000000,800.000000) scale(0.100000,-0.100000)"
fill="#000000" stroke="none">
<path d="M3214 7322 c-9 -9 -28 -41 -41 -72 -14 -30 -31 -68 -38 -85 -7 -16
-147 -343 -310 -725 -163 -382 -305 -713 -315 -735 -10 -22 -84 -195 -165
-385 -81 -190 -155 -363 -165 -385 -10 -22 -43 -101 -75 -175 -31 -74 -65
-153 -75 -175 -10 -22 -85 -195 -165 -385 -81 -190 -157 -365 -168 -389 -26
-55 -26 -97 -1 -116 16 -12 120 -22 157 -16 5 1 305 4 668 7 468 5 659 3 659
-5 0 -5 -6 -30 -14 -53 -8 -24 -24 -77 -36 -118 -12 -41 -32 -111 -45 -155
-13 -44 -67 -228 -119 -410 -53 -181 -101 -346 -107 -365 -11 -32 -85 -285
-93 -320 -2 -8 -18 -62 -36 -120 -17 -58 -55 -188 -85 -290 -29 -102 -70 -241
-90 -310 -21 -69 -41 -138 -46 -155 -9 -35 -15 -57 -199 -685 -79 -267 -144
-495 -146 -508 -3 -31 29 -62 65 -62 22 0 39 12 77 56 51 58 56 65 139 156 28
30 79 88 115 128 36 40 74 84 86 96 12 13 52 58 90 101 38 42 91 102 118 131
26 30 60 68 75 85 14 17 33 38 41 47 8 9 47 52 85 96 39 43 75 84 81 89 6 6
60 66 120 135 60 69 112 127 115 130 3 3 66 73 139 155 73 83 137 155 144 160
6 6 38 42 71 80 33 39 62 72 66 75 3 3 61 68 130 145 68 77 140 157 159 179
53 58 168 187 221 248 16 18 133 149 154 172 6 6 46 52 90 101 44 50 85 95 90
101 6 6 42 46 80 90 39 43 111 124 160 179 128 142 407 455 436 489 13 16 33
38 45 50 11 12 54 59 95 105 41 47 81 92 89 101 8 9 47 52 85 95 39 44 79 89
90 100 11 12 35 39 54 61 32 36 109 123 226 254 28 30 79 89 115 129 36 40 76
86 90 101 142 156 148 165 142 195 -10 55 30 53 -1010 51 -529 0 -961 2 -960
6 3 6 209 216 1238 1258 1277 1293 1166 1179 1175 1207 4 17 -1 29 -19 48
l-25 25 -1755 0 c-1639 -1 -1756 -2 -1772 -18z"/>
</g>
</svg>
